<svg xml:space="preserve" viewBox="0 0 100 100" y="0" x="0" xmlns="http://www.w3.org/2000/svg" id="圖層_1" version="1.1" style="margin: initial; display: block; shape-rendering: auto; " preserveAspectRatio="xMidYMid" width="200" height="200">
	<g class="ldl-scale" style="transform-origin: 50% 50%; transform: rotate(0deg) scale(0.8, 0.8);">
    <g class="ldl-ani">
      <g class="ldl-layer">
        <g class="ldl-ani" style="opacity: 1; transform-origin: 50px 50px; transform: matrix3d(0.91, 0, 0, 0, 0, 0.91, 0, 0, 0, 0, 0.91, 0, 0, 0, 0, 1); animation: 1s linear -0.55s infinite normal forwards running animate; transform-box: view-box;">
          <path stroke-miterlimit="10" stroke-width="3.5" stroke="#333" fill="#036bfc" d="M76.367 42.112H23.633v40.233a5.267 5.267 0 0 0 5.267 5.267h42.2a5.267 5.267 0 0 0 5.267-5.267V42.112z" style="stroke-width: 3.5; fill: rgb(3,107,252); stroke: rgb(51, 51, 51);"></path>
        </g>
      </g>
      <g class="ldl-layer">
        <g class="ldl-ani" style="opacity: 1; transform-origin: 50px 50px; transform: matrix3d(0.91, 0, 0, 0, 0, 0.91, 0, 0, 0, 0, 0.91, 0, 0, 0, 0, 1); animation: 1s linear -0.6s infinite normal forwards running animate; transform-box: view-box;">
          <path stroke-miterlimit="10" stroke-width="3.5" stroke="#000" opacity=".1" d="M68.022 42.112v8.722H23.633v7.615h44.389v15.847c0 7.355-5.962 13.317-13.317 13.317H71.1a5.267 5.267 0 0 0 5.267-5.267V42.111h-8.345z" style="stroke-width: 3.5;"></path>
        </g>
      </g>
      <g class="ldl-layer">
        <g class="ldl-ani" style="opacity: 1; transform-origin: 50px 50px; transform: matrix3d(0.91, 0, 0, 0, 0, 0.91, 0, 0, 0, 0, 0.91, 0, 0, 0, 0, 1); animation: 1s linear -0.65s infinite normal forwards running animate; transform-box: view-box;">
          <path stroke-width="3.5" stroke="#333" fill="#f8b26a" stroke-miterlimit="10" d="M24.68 10.097c-.087.029-.174.06-.26.093-1.641.626-3.224 5.227-4.183 6.886-1.024 1.772 3.906 6.538 11.012 10.646 6.77 3.913 14.065 4.186 15.359 3.124l3.022-5.228c.615-1.064-3.539-7.173-10.645-11.28-3.814-2.205-9.65-5.804-14.305-4.241z" style="stroke-width: 3.5; fill: rgb(248, 178, 106); stroke: rgb(51, 51, 51);"></path>
        </g>
      </g>
      <g class="ldl-layer">
        <g class="ldl-ani" style="opacity: 1; transform-origin: 50px 50px; transform: matrix3d(0.91, 0, 0, 0, 0, 0.91, 0, 0, 0, 0, 0.91, 0, 0, 0, 0, 1); animation: 1s linear -0.7s infinite normal forwards running animate; transform-box: view-box;">
          <path opacity=".1" d="M35.007 20.721c4.29 2.48 6.648 6.427 6.648 6.427s-4.597-.073-8.887-2.553-7.266-5.357-6.648-6.427c.618-1.07 4.597.073 8.887 2.553z" style="stroke-width: 1;"></path>
        </g>
      </g>
      <g class="ldl-layer">
        <g class="ldl-ani" style="opacity: 1; transform-origin: 50px 50px; transform: matrix3d(0.91, 0, 0, 0, 0, 0.91, 0, 0, 0, 0, 0.91, 0, 0, 0, 0, 1); animation: 1s linear -0.75s infinite normal forwards running animate; transform-box: view-box;">
          <path stroke-width="3.5" stroke="#333" fill="#f8b26a" stroke-miterlimit="10" d="M75.32 10.097c.087.029.174.06.26.093 1.641.626 3.224 5.227 4.183 6.886 1.024 1.772-3.906 6.538-11.012 10.646-6.77 3.913-14.065 4.186-15.359 3.124l-3.022-5.228c-.615-1.064 3.539-7.173 10.645-11.28 3.814-2.205 9.65-5.804 14.305-4.241z" style="stroke-width: 3.5; fill: rgb(248, 178, 106); stroke: rgb(51, 51, 51);"></path>
        </g>
      </g>
      <g class="ldl-layer">
        <g class="ldl-ani" style="opacity: 1; transform-origin: 50px 50px; transform: matrix3d(0.91, 0, 0, 0, 0, 0.91, 0, 0, 0, 0, 0.91, 0, 0, 0, 0, 1); animation: 1s linear -0.8s infinite normal forwards running animate; transform-box: view-box;">
          <path opacity=".1" d="M64.993 20.721c-4.29 2.48-6.648 6.427-6.648 6.427s4.597-.073 8.887-2.553 7.266-5.357 6.648-6.427c-.618-1.07-4.597.073-8.887 2.553z" style="stroke-width: 1;"></path>
        </g>
      </g>
      <g class="ldl-layer">
        <g class="ldl-ani" style="opacity: 1; transform-origin: 50px 50px; transform: matrix3d(0.91, 0, 0, 0, 0, 0.91, 0, 0, 0, 0, 0.91, 0, 0, 0, 0, 1); animation: 1s linear -0.85s infinite normal forwards running animate; transform-box: view-box;">
          <path stroke-miterlimit="10" stroke-width="3.048" stroke="#333" fill="#036bfc" d="M80.868 50.833H19.132a2.983 2.983 0 0 1-2.983-2.983V34.095a2.983 2.983 0 0 1 2.983-2.983h61.735a2.983 2.983 0 0 1 2.983 2.983V47.85a2.981 2.981 0 0 1-2.982 2.983z" style="stroke-width: 3.048; fill: rgb(3,107,252); stroke: rgb(51, 51, 51);"></path>
        </g>
      </g>
      <g class="ldl-layer">
        <g class="ldl-ani" style="opacity: 1; transform-origin: 50px 50px; transform: matrix3d(0.91, 0, 0, 0, 0, 0.91, 0, 0, 0, 0, 0.91, 0, 0, 0, 0, 1); animation: 1s linear -0.9s infinite normal forwards running animate; transform-box: view-box;">
          <path stroke-miterlimit="10" stroke-width="3.048" stroke="#000" opacity=".1" d="M80.868 31.112H78v12.472a7.25 7.25 0 0 1-7.25 7.25h10.118a2.983 2.983 0 0 0 2.983-2.983V34.095a2.983 2.983 0 0 0-2.983-2.983z" style="stroke-width: 3.048;"></path>
        </g>
      </g>
      <g class="ldl-layer">
        <g class="ldl-ani" style="opacity: 1; transform-origin: 50px 50px; transform: matrix3d(0.91, 0, 0, 0, 0, 0.91, 0, 0, 0, 0, 0.91, 0, 0, 0, 0, 1); animation: 1s linear -0.95s infinite normal forwards running animate; transform-box: view-box;">
          <path d="M41.5 31.112h17v56.5h-17z" stroke-width="3.5" stroke="#333" fill="#f8b26a" stroke-miterlimit="10" style="stroke-width: 3.5; fill: rgb(248, 178, 106); stroke: rgb(51, 51, 51);"></path>
        </g>
      </g>
      <g class="ldl-layer">
        <g class="ldl-ani" style="opacity: 1; transform-origin: 50px 50px; transform: matrix3d(0.91, 0, 0, 0, 0, 0.91, 0, 0, 0, 0, 0.91, 0, 0, 0, 0, 1); animation: 1s linear -1s infinite normal forwards running animate; transform-box: view-box;">
          <path d="M41.5 52.667h17v6.195h-17z" stroke="#000" opacity=".1" stroke-width="2.983" stroke-miterlimit="10" style="stroke-width: 2.983;"></path>
        </g>
      </g>
      <metadata xmlns:d="https://loading.io/stock/">
      </metadata>
    </g>
  </g>
	<style type="text/css">
		@keyframes animate { 0.00% {transform: translate(0.00px,0.00px) rotate(0.00deg) scale(0.91, 0.91) skew(0deg, 0.00deg) ;opacity: 1.00;}4.00% {transform: translate(0.00px,0.00px) rotate(0.00deg) scale(0.91, 0.91) ;}8.00% {animation-timing-function: cubic-bezier(0.69,0.60,0.35,0.27);transform: translate(0.00px,0.00px) rotate(0.00deg) scale(0.91, 0.91) ;}14.00% {transform: translate(0.00px,0.00px) rotate(0.00deg) scale(0.93, 0.93) ;}18.00% {transform: translate(0.00px,0.00px) rotate(0.00deg) scale(0.94, 0.94) ;}22.00% {animation-timing-function: cubic-bezier(0.67,0.66,0.34,0.33);transform: translate(0.00px,0.00px) rotate(0.00deg) scale(0.96, 0.96) ;}26.00% {transform: translate(0.00px,0.00px) rotate(0.00deg) scale(0.97, 0.97) ;}30.00% {transform: translate(0.00px,0.00px) rotate(0.00deg) scale(0.99, 0.99) ;}34.00% {animation-timing-function: cubic-bezier(0.65,0.71,0.32,0.38);transform: translate(0.00px,0.00px) rotate(0.00deg) scale(1.01, 1.01) ;}40.00% {animation-timing-function: cubic-bezier(0.64,0.74,0.31,0.41);transform: translate(0.00px,0.00px) rotate(0.00deg) scale(1.02, 1.02) ;}46.00% {animation-timing-function: cubic-bezier(0.60,0.91,0.23,0.63);transform: translate(0.00px,0.00px) rotate(0.00deg) scale(1.03, 1.03) ;}50.00% {transform: translate(0.00px,0.00px) rotate(0.00deg) scale(1.03, 1.03) ;}54.00% {transform: translate(0.00px,0.00px) rotate(0.00deg) scale(1.03, 1.03) ;}58.00% {animation-timing-function: cubic-bezier(0.69,0.60,0.35,0.27);transform: translate(0.00px,0.00px) rotate(0.00deg) scale(1.03, 1.03) ;}64.00% {transform: translate(0.00px,0.00px) rotate(0.00deg) scale(1.01, 1.01) ;}68.00% {transform: translate(0.00px,0.00px) rotate(0.00deg) scale(1.00, 1.00) ;}72.00% {animation-timing-function: cubic-bezier(0.67,0.66,0.34,0.33);transform: translate(0.00px,0.00px) rotate(0.00deg) scale(0.98, 0.98) ;}76.00% {animation-timing-function: cubic-bezier(0.66,0.68,0.33,0.35);transform: translate(0.00px,0.00px) rotate(0.00deg) scale(0.97, 0.97) ;}82.00% {animation-timing-function: cubic-bezier(0.65,0.71,0.32,0.38);transform: translate(0.00px,0.00px) rotate(0.00deg) scale(0.94, 0.94) ;}88.00% {animation-timing-function: cubic-bezier(0.65,0.73,0.31,0.40);transform: translate(0.00px,0.00px) rotate(0.00deg) scale(0.92, 0.92) ;}94.00% {animation-timing-function: cubic-bezier(0.63,0.80,0.28,0.48);transform: translate(0.00px,0.00px) rotate(0.00deg) scale(0.91, 0.91) ;}100.00% {animation-timing-function: cubic-bezier(0.63,0.80,0.28,0.48);transform: translate(0.00px,0.00px) rotate(0.00deg) scale(0.91, 0.91) ;} }
	</style>
	<!-- [ldio] generated by https://loading.io -->
</svg>
