<svg xml:space="preserve" viewBox="0 0 100 100" y="0" x="0" xmlns="http://www.w3.org/2000/svg" id="圖層_1" version="1.1" preserveAspectRatio="xMidYMid" width="200" height="200" xmlns:xlink="http://www.w3.org/1999/xlink" style="margin-top:0px;margin-right:0px;margin-bottom:0px;margin-left:0px;display:block;shape-rendering:auto;background-position-x:0%;background-position-y:0%;background-size:auto;background-origin:padding-box;background-clip:border-box;background:scroll rgb(255, 255, 255) none  repeat;width:200px;height:200px;;animation:none"><g class="ldl-scale" style="transform-origin:50px 50px;transform:matrix(0.8, 0, 0, 0.8, 0, 0);;animation:none"><g class="ldl-ani"><g class="ldl-layer"><g class="ldl-ani" style="transform:matrix(1, 0, 0, 1, 0, 0);transform-box:view-box;animation-duration:1s;animation-timing-function:linear;animation-delay:-0.55s;animation-iteration-count:infinite;animation-direction:normal;animation-fill-mode:forwards;animation-play-state:paused;animation-name:animate;animation-timeline:auto;animation-range-start:normal;animation-range-end:normal;transform-origin:50px 50px;;animation:none"><path stroke-miterlimit="10" stroke-width="3.5" stroke="#333" fill="#e15b64" d="M76.367 42.112H23.633v40.233a5.267 5.267 0 0 0 5.267 5.267h42.2a5.267 5.267 0 0 0 5.267-5.267V42.112z" style="stroke-width:3.5px;fill:rgb(225, 91, 100);stroke:rgb(51, 51, 51);;animation:none"></path></g></g>
<g class="ldl-layer"><g class="ldl-ani" style="transform:matrix(1, 0, 0, 1, 0, 0);transform-box:view-box;animation-duration:1s;animation-timing-function:linear;animation-delay:-0.6s;animation-iteration-count:infinite;animation-direction:normal;animation-fill-mode:forwards;animation-play-state:paused;animation-name:animate;animation-timeline:auto;animation-range-start:normal;animation-range-end:normal;transform-origin:50px 50px;;animation:none"><path stroke-miterlimit="10" stroke-width="3.5" stroke="#000" opacity=".1" d="M68.022 42.112v8.722H23.633v7.615h44.389v15.847c0 7.355-5.962 13.317-13.317 13.317H71.1a5.267 5.267 0 0 0 5.267-5.267V42.111h-8.345z" style="stroke-width:3.5px;stroke:rgb(0, 0, 0);opacity:0.1;;animation:none"></path></g></g>
<g class="ldl-layer"><g class="ldl-ani" style="transform:matrix(1, 0, 0, 1, 0, 0);transform-box:view-box;animation-duration:1s;animation-timing-function:linear;animation-delay:-0.65s;animation-iteration-count:infinite;animation-direction:normal;animation-fill-mode:forwards;animation-play-state:paused;animation-name:animate;animation-timeline:auto;animation-range-start:normal;animation-range-end:normal;transform-origin:50px 50px;;animation:none"><path stroke-width="3.5" stroke="#333" fill="#f8b26a" stroke-miterlimit="10" d="M24.68 10.097c-.087.029-.174.06-.26.093-1.641.626-3.224 5.227-4.183 6.886-1.024 1.772 3.906 6.538 11.012 10.646 6.77 3.913 14.065 4.186 15.359 3.124l3.022-5.228c.615-1.064-3.539-7.173-10.645-11.28-3.814-2.205-9.65-5.804-14.305-4.241z" style="stroke-width:3.5px;fill:rgb(248, 178, 106);stroke:rgb(51, 51, 51);;animation:none"></path></g></g>
<g class="ldl-layer"><g class="ldl-ani" style="transform:matrix(1, 0, 0, 1, 0, 0);transform-box:view-box;animation-duration:1s;animation-timing-function:linear;animation-delay:-0.7s;animation-iteration-count:infinite;animation-direction:normal;animation-fill-mode:forwards;animation-play-state:paused;animation-name:animate;animation-timeline:auto;animation-range-start:normal;animation-range-end:normal;transform-origin:50px 50px;;animation:none"><path opacity=".1" d="M35.007 20.721c4.29 2.48 6.648 6.427 6.648 6.427s-4.597-.073-8.887-2.553-7.266-5.357-6.648-6.427c.618-1.07 4.597.073 8.887 2.553z" style="stroke-width:1px;opacity:0.1;;animation:none"></path></g></g>
<g class="ldl-layer"><g class="ldl-ani" style="transform:matrix(1, 0, 0, 1, 0, 0);transform-box:view-box;animation-duration:1s;animation-timing-function:linear;animation-delay:-0.75s;animation-iteration-count:infinite;animation-direction:normal;animation-fill-mode:forwards;animation-play-state:paused;animation-name:animate;animation-timeline:auto;animation-range-start:normal;animation-range-end:normal;transform-origin:50px 50px;;animation:none"><path stroke-width="3.5" stroke="#333" fill="#f8b26a" stroke-miterlimit="10" d="M75.32 10.097c.087.029.174.06.26.093 1.641.626 3.224 5.227 4.183 6.886 1.024 1.772-3.906 6.538-11.012 10.646-6.77 3.913-14.065 4.186-15.359 3.124l-3.022-5.228c-.615-1.064 3.539-7.173 10.645-11.28 3.814-2.205 9.65-5.804 14.305-4.241z" style="stroke-width:3.5px;fill:rgb(248, 178, 106);stroke:rgb(51, 51, 51);;animation:none"></path></g></g>
<g class="ldl-layer"><g class="ldl-ani" style="transform:matrix(1, 0, 0, 1, 0, 0);transform-box:view-box;animation-duration:1s;animation-timing-function:linear;animation-delay:-0.8s;animation-iteration-count:infinite;animation-direction:normal;animation-fill-mode:forwards;animation-play-state:paused;animation-name:animate;animation-timeline:auto;animation-range-start:normal;animation-range-end:normal;transform-origin:50px 50px;;animation:none"><path opacity=".1" d="M64.993 20.721c-4.29 2.48-6.648 6.427-6.648 6.427s4.597-.073 8.887-2.553 7.266-5.357 6.648-6.427c-.618-1.07-4.597.073-8.887 2.553z" style="stroke-width:1px;opacity:0.1;;animation:none"></path></g></g>
<g class="ldl-layer"><g class="ldl-ani" style="transform:matrix(1, 0, 0, 1, 0, 0);transform-box:view-box;animation-duration:1s;animation-timing-function:linear;animation-delay:-0.85s;animation-iteration-count:infinite;animation-direction:normal;animation-fill-mode:forwards;animation-play-state:paused;animation-name:animate;animation-timeline:auto;animation-range-start:normal;animation-range-end:normal;transform-origin:50px 50px;;animation:none"><path stroke-miterlimit="10" stroke-width="3.048" stroke="#333" fill="#e15b64" d="M80.868 50.833H19.132a2.983 2.983 0 0 1-2.983-2.983V34.095a2.983 2.983 0 0 1 2.983-2.983h61.735a2.983 2.983 0 0 1 2.983 2.983V47.85a2.981 2.981 0 0 1-2.982 2.983z" style="stroke-width:3.048px;fill:rgb(225, 91, 100);stroke:rgb(51, 51, 51);;animation:none"></path></g></g>
<g class="ldl-layer"><g class="ldl-ani" style="transform:matrix(1, 0, 0, 1, 0, 0);transform-box:view-box;animation-duration:1s;animation-timing-function:linear;animation-delay:-0.9s;animation-iteration-count:infinite;animation-direction:normal;animation-fill-mode:forwards;animation-play-state:paused;animation-name:animate;animation-timeline:auto;animation-range-start:normal;animation-range-end:normal;transform-origin:50px 50px;;animation:none"><path stroke-miterlimit="10" stroke-width="3.048" stroke="#000" opacity=".1" d="M80.868 31.112H78v12.472a7.25 7.25 0 0 1-7.25 7.25h10.118a2.983 2.983 0 0 0 2.983-2.983V34.095a2.983 2.983 0 0 0-2.983-2.983z" style="stroke-width:3.048px;stroke:rgb(0, 0, 0);opacity:0.1;;animation:none"></path></g></g>
<g class="ldl-layer"><g class="ldl-ani" style="transform:matrix(1, 0, 0, 1, 0, 0);transform-box:view-box;animation-duration:1s;animation-timing-function:linear;animation-delay:-0.95s;animation-iteration-count:infinite;animation-direction:normal;animation-fill-mode:forwards;animation-play-state:paused;animation-name:animate;animation-timeline:auto;animation-range-start:normal;animation-range-end:normal;transform-origin:50px 50px;;animation:none"><path d="M41.5 31.112h17v56.5h-17z" stroke-width="3.5" stroke="#333" fill="#f8b26a" stroke-miterlimit="10" style="stroke-width:3.5px;fill:rgb(248, 178, 106);stroke:rgb(51, 51, 51);;animation:none"></path></g></g>
<g class="ldl-layer"><g class="ldl-ani" style="transform:matrix(1, 0, 0, 1, 0, 0);transform-box:view-box;animation-duration:1s;animation-timing-function:linear;animation-delay:-1s;animation-iteration-count:infinite;animation-direction:normal;animation-fill-mode:forwards;animation-play-state:paused;animation-name:animate;animation-timeline:auto;animation-range-start:normal;animation-range-end:normal;transform-origin:50px 50px;;animation:none"><path d="M41.5 52.667h17v6.195h-17z" stroke="#000" opacity=".1" stroke-width="2.983" stroke-miterlimit="10" style="stroke-width:2.983px;stroke:rgb(0, 0, 0);opacity:0.1;;animation:none"></path></g></g>
<metadata xmlns:d="https://loading.io/stock/"></metadata></g></g>
<STYLE type="text/css">@keyframes animate { 0.00% {animation-timing-function: cubic-bezier(0.33,0.00,0.67,0.00);transform: translate(0.00px,0.00px) rotate(0.00deg) scale(1.00, 1.00) skew(0deg, 0.00deg) ;opacity: 1.00;}50.00% {animation-timing-function: cubic-bezier(0.33,0.00,0.67,0.00);transform: translate(0.00px,0.00px) rotate(0.00deg) ;}100.00% {animation-timing-function: cubic-bezier(0.33,0.00,0.67,0.00);transform: translate(0.00px,0.00px) rotate(0.00deg) ;} }</STYLE><!-- [ldio] generated by https://loading.io --></svg>